<svg width="29" height="29" viewBox="0 0 29 29" fill="none" xmlns="http://www.w3.org/2000/svg">
<path d="M25.3009 7.95907C25.2726 7.51792 24.9077 7.17481 24.4655 7.17481H20.0377V5.86663C20.0377 3.247 17.5531 1.11536 14.5 1.11536C11.4468 1.11536 8.96229 3.247 8.96229 5.86663V7.17481H4.53451C4.09228 7.17481 3.72739 7.51792 3.69907 7.95907L2.5107 26.9958C2.49654 27.2267 2.57823 27.4522 2.73617 27.621C2.89412 27.7887 3.11523 27.8846 3.34615 27.8846H25.6538C25.8848 27.8846 26.1059 27.7887 26.2638 27.621C26.4218 27.4522 26.5035 27.2267 26.4893 26.9958L25.3009 7.95907ZM10.6354 5.86663C10.6354 4.16959 12.3694 2.78843 14.5 2.78843C16.6306 2.78843 18.3646 4.16959 18.3646 5.86663V7.17481H10.6354V5.86663ZM8.96229 8.84789V10.6647C8.96229 11.1266 9.33699 11.5013 9.79883 11.5013C10.2607 11.5013 10.6354 11.1266 10.6354 10.6647V8.84789H18.3646V10.6647C18.3646 11.1266 18.7393 11.5013 19.2012 11.5013C19.663 11.5013 20.0377 11.1266 20.0377 10.6647V8.84789H23.679L24.4039 20.4483H4.59613L5.32095 8.84789H8.96229ZM4.23606 26.2115L4.52648 21.5637H24.4735L24.7639 26.2115H4.23606Z" fill="#9C9C42"/>
</svg>
